<mxfile host="app.diagrams.net" agent="Mozilla/5.0 (Windows NT 10.0; Win64; x64) AppleWebKit/537.36 (KHTML, like Gecko) Chrome/133.0.0.0 Safari/537.36" version="26.1.0">
  <diagram name="Page-1" id="c7488fd3-1785-93aa-aadb-54a6760d102a">
    <mxGraphModel dx="1434" dy="772" grid="1" gridSize="10" guides="1" tooltips="1" connect="1" arrows="1" fold="1" page="1" pageScale="1" pageWidth="1100" pageHeight="850" background="none" math="0" shadow="0">
      <root>
        <mxCell id="0" />
        <mxCell id="1" parent="0" />
        <mxCell id="X5e3uY8N-baIYEQO0uc5-21" value="" style="rounded=0;whiteSpace=wrap;html=1;dashed=1;fillColor=#d5e8d4;strokeColor=#82b366;" vertex="1" parent="1">
          <mxGeometry x="731" y="190" width="230" height="400" as="geometry" />
        </mxCell>
        <mxCell id="X5e3uY8N-baIYEQO0uc5-6" value="" style="rounded=0;whiteSpace=wrap;html=1;dashed=1;fillColor=#fff2cc;strokeColor=#d6b656;" vertex="1" parent="1">
          <mxGeometry x="211" y="190" width="490" height="400" as="geometry" />
        </mxCell>
        <mxCell id="X5e3uY8N-baIYEQO0uc5-34" style="edgeStyle=orthogonalEdgeStyle;rounded=0;orthogonalLoop=1;jettySize=auto;html=1;exitX=1;exitY=0.5;exitDx=0;exitDy=0;entryX=0;entryY=0.5;entryDx=0;entryDy=0;" edge="1" parent="1" source="X5e3uY8N-baIYEQO0uc5-12" target="X5e3uY8N-baIYEQO0uc5-14">
          <mxGeometry relative="1" as="geometry" />
        </mxCell>
        <mxCell id="X5e3uY8N-baIYEQO0uc5-12" value="kb-backend" style="rounded=0;whiteSpace=wrap;html=1;" vertex="1" parent="1">
          <mxGeometry x="251" y="257" width="100" height="50" as="geometry" />
        </mxCell>
        <mxCell id="X5e3uY8N-baIYEQO0uc5-32" style="edgeStyle=orthogonalEdgeStyle;rounded=0;orthogonalLoop=1;jettySize=auto;html=1;exitX=0.5;exitY=1;exitDx=0;exitDy=0;entryX=0.5;entryY=0;entryDx=0;entryDy=0;" edge="1" parent="1" source="X5e3uY8N-baIYEQO0uc5-14" target="X5e3uY8N-baIYEQO0uc5-15">
          <mxGeometry relative="1" as="geometry" />
        </mxCell>
        <mxCell id="X5e3uY8N-baIYEQO0uc5-14" value="dify-api" style="rounded=0;whiteSpace=wrap;html=1;" vertex="1" parent="1">
          <mxGeometry x="421" y="257" width="100" height="50" as="geometry" />
        </mxCell>
        <mxCell id="X5e3uY8N-baIYEQO0uc5-27" style="edgeStyle=orthogonalEdgeStyle;rounded=0;orthogonalLoop=1;jettySize=auto;html=1;exitX=1;exitY=0.5;exitDx=0;exitDy=0;entryX=0;entryY=0.5;entryDx=0;entryDy=0;" edge="1" parent="1" source="X5e3uY8N-baIYEQO0uc5-15" target="X5e3uY8N-baIYEQO0uc5-25">
          <mxGeometry relative="1" as="geometry" />
        </mxCell>
        <mxCell id="X5e3uY8N-baIYEQO0uc5-28" style="edgeStyle=orthogonalEdgeStyle;rounded=0;orthogonalLoop=1;jettySize=auto;html=1;exitX=1;exitY=0.5;exitDx=0;exitDy=0;" edge="1" parent="1" source="X5e3uY8N-baIYEQO0uc5-15" target="X5e3uY8N-baIYEQO0uc5-26">
          <mxGeometry relative="1" as="geometry" />
        </mxCell>
        <mxCell id="X5e3uY8N-baIYEQO0uc5-29" style="edgeStyle=orthogonalEdgeStyle;rounded=0;orthogonalLoop=1;jettySize=auto;html=1;exitX=0.5;exitY=1;exitDx=0;exitDy=0;" edge="1" parent="1" source="X5e3uY8N-baIYEQO0uc5-15" target="X5e3uY8N-baIYEQO0uc5-16">
          <mxGeometry relative="1" as="geometry" />
        </mxCell>
        <mxCell id="X5e3uY8N-baIYEQO0uc5-30" style="edgeStyle=orthogonalEdgeStyle;rounded=0;orthogonalLoop=1;jettySize=auto;html=1;exitX=0.5;exitY=1;exitDx=0;exitDy=0;entryX=0.5;entryY=0;entryDx=0;entryDy=0;" edge="1" parent="1" source="X5e3uY8N-baIYEQO0uc5-15" target="X5e3uY8N-baIYEQO0uc5-17">
          <mxGeometry relative="1" as="geometry" />
        </mxCell>
        <mxCell id="X5e3uY8N-baIYEQO0uc5-35" style="edgeStyle=orthogonalEdgeStyle;rounded=0;orthogonalLoop=1;jettySize=auto;html=1;exitX=0.5;exitY=1;exitDx=0;exitDy=0;entryX=0.5;entryY=0;entryDx=0;entryDy=0;" edge="1" parent="1" source="X5e3uY8N-baIYEQO0uc5-15" target="X5e3uY8N-baIYEQO0uc5-18">
          <mxGeometry relative="1" as="geometry" />
        </mxCell>
        <mxCell id="X5e3uY8N-baIYEQO0uc5-36" style="edgeStyle=orthogonalEdgeStyle;rounded=0;orthogonalLoop=1;jettySize=auto;html=1;exitX=0.5;exitY=1;exitDx=0;exitDy=0;" edge="1" parent="1" source="X5e3uY8N-baIYEQO0uc5-15" target="X5e3uY8N-baIYEQO0uc5-19">
          <mxGeometry relative="1" as="geometry" />
        </mxCell>
        <mxCell id="X5e3uY8N-baIYEQO0uc5-15" value="dify-worker" style="rounded=0;whiteSpace=wrap;html=1;" vertex="1" parent="1">
          <mxGeometry x="421" y="337" width="100" height="50" as="geometry" />
        </mxCell>
        <mxCell id="X5e3uY8N-baIYEQO0uc5-16" value="xinference" style="rounded=0;whiteSpace=wrap;html=1;" vertex="1" parent="1">
          <mxGeometry x="241" y="427" width="100" height="50" as="geometry" />
        </mxCell>
        <mxCell id="X5e3uY8N-baIYEQO0uc5-17" value="xinference" style="rounded=0;whiteSpace=wrap;html=1;" vertex="1" parent="1">
          <mxGeometry x="351" y="427" width="100" height="50" as="geometry" />
        </mxCell>
        <mxCell id="X5e3uY8N-baIYEQO0uc5-18" value="xinference" style="rounded=0;whiteSpace=wrap;html=1;" vertex="1" parent="1">
          <mxGeometry x="461" y="427" width="100" height="50" as="geometry" />
        </mxCell>
        <mxCell id="X5e3uY8N-baIYEQO0uc5-19" value="向量数据库&lt;div&gt;weaviate&lt;/div&gt;" style="rounded=0;whiteSpace=wrap;html=1;" vertex="1" parent="1">
          <mxGeometry x="571" y="427" width="100" height="50" as="geometry" />
        </mxCell>
        <mxCell id="X5e3uY8N-baIYEQO0uc5-33" style="edgeStyle=orthogonalEdgeStyle;rounded=0;orthogonalLoop=1;jettySize=auto;html=1;exitX=1;exitY=0.5;exitDx=0;exitDy=0;entryX=0;entryY=0.5;entryDx=0;entryDy=0;" edge="1" parent="1" source="X5e3uY8N-baIYEQO0uc5-20" target="X5e3uY8N-baIYEQO0uc5-12">
          <mxGeometry relative="1" as="geometry" />
        </mxCell>
        <mxCell id="X5e3uY8N-baIYEQO0uc5-24" value="公共组件" style="rounded=0;whiteSpace=wrap;html=1;fillColor=#d5e8d4;strokeColor=#82b366;" vertex="1" parent="1">
          <mxGeometry x="791" y="530" width="100" height="50" as="geometry" />
        </mxCell>
        <mxCell id="X5e3uY8N-baIYEQO0uc5-25" value="数据库&lt;div&gt;GaussDB/&lt;/div&gt;&lt;div&gt;PostgreSQL&lt;/div&gt;" style="rounded=0;whiteSpace=wrap;html=1;" vertex="1" parent="1">
          <mxGeometry x="796" y="282" width="100" height="50" as="geometry" />
        </mxCell>
        <mxCell id="X5e3uY8N-baIYEQO0uc5-26" value="redis" style="rounded=0;whiteSpace=wrap;html=1;" vertex="1" parent="1">
          <mxGeometry x="796" y="382" width="100" height="50" as="geometry" />
        </mxCell>
        <mxCell id="X5e3uY8N-baIYEQO0uc5-40" value="GPU服务器" style="rounded=0;whiteSpace=wrap;html=1;" vertex="1" parent="1">
          <mxGeometry x="251" y="467" width="80" height="40" as="geometry" />
        </mxCell>
        <mxCell id="X5e3uY8N-baIYEQO0uc5-41" value="GPU服务器" style="rounded=0;whiteSpace=wrap;html=1;" vertex="1" parent="1">
          <mxGeometry x="361" y="467" width="80" height="40" as="geometry" />
        </mxCell>
        <mxCell id="X5e3uY8N-baIYEQO0uc5-42" value="GPU服务器" style="rounded=0;whiteSpace=wrap;html=1;" vertex="1" parent="1">
          <mxGeometry x="471" y="467" width="80" height="40" as="geometry" />
        </mxCell>
        <mxCell id="X5e3uY8N-baIYEQO0uc5-43" value="知识库后端组件" style="rounded=0;whiteSpace=wrap;html=1;fillColor=#fff2cc;strokeColor=none;" vertex="1" parent="1">
          <mxGeometry x="421" y="530" width="100" height="50" as="geometry" />
        </mxCell>
        <mxCell id="X5e3uY8N-baIYEQO0uc5-44" value="" style="group" vertex="1" connectable="0" parent="1">
          <mxGeometry x="71" y="257" width="100" height="80" as="geometry" />
        </mxCell>
        <mxCell id="X5e3uY8N-baIYEQO0uc5-20" value="nginx" style="rounded=0;whiteSpace=wrap;html=1;movable=1;resizable=1;rotatable=1;deletable=1;editable=1;locked=0;connectable=1;" vertex="1" parent="X5e3uY8N-baIYEQO0uc5-44">
          <mxGeometry width="100" height="50" as="geometry" />
        </mxCell>
        <mxCell id="X5e3uY8N-baIYEQO0uc5-23" value="kb-front" style="rounded=0;whiteSpace=wrap;html=1;movable=1;resizable=1;rotatable=1;deletable=1;editable=1;locked=0;connectable=1;" vertex="1" parent="X5e3uY8N-baIYEQO0uc5-44">
          <mxGeometry x="10" y="40" width="80" height="40" as="geometry" />
        </mxCell>
      </root>
    </mxGraphModel>
  </diagram>
</mxfile>
